<svg xmlns="http://www.w3.org/2000/svg" viewBox="0 0 1200 630">
  <defs>
    <linearGradient id="bg" x1="0" y1="0" x2="1" y2="1">
      <stop offset="0" stop-color="#0F766E"/>
      <stop offset="1" stop-color="#0B5650"/>
    </linearGradient>
  </defs>
  <rect width="1200" height="630" fill="url(#bg)"/>
  <g transform="translate(120 175) scale(4.5)">
    <rect width="64" height="64" rx="14" fill="#FFFFFF"/>
    <rect x="16" y="12" width="32" height="40" rx="3" fill="#0F766E"/>
    <rect x="20" y="16" width="24" height="20" rx="2" fill="#FFFFFF"/>
    <circle cx="26" cy="22" r="1.6" fill="#0F766E"/>
    <circle cx="32" cy="22" r="1.6" fill="#0F766E"/>
    <circle cx="38" cy="22" r="1.6" fill="#0F766E"/>
    <circle cx="26" cy="30" r="1.6" fill="#0F766E"/>
    <circle cx="32" cy="30" r="1.6" fill="#0F766E"/>
    <circle cx="38" cy="30" r="1.6" fill="#0F766E"/>
    <circle cx="22" cy="42" r="1.6" fill="#FFFFFF"/>
    <circle cx="28" cy="42" r="1.6" fill="#FFFFFF"/>
    <circle cx="34" cy="42" r="1.6" fill="#FFFFFF"/>
    <circle cx="40" cy="42" r="1.6" fill="#FFFFFF"/>
    <rect x="22" y="46" width="20" height="3" rx="1" fill="#FFFFFF"/>
  </g>
  <text x="540" y="290"
        font-family="ui-sans-serif, system-ui, -apple-system, Segoe UI, Roboto, Helvetica, Arial, sans-serif"
        font-size="96" font-weight="800" fill="#FFFFFF" letter-spacing="-2">Vending Machine</text>
  <text x="540" y="360"
        font-family="ui-sans-serif, system-ui, -apple-system, Segoe UI, Roboto, Helvetica, Arial, sans-serif"
        font-size="34" font-weight="500" fill="#A7F3D0">Manage products. Process purchases. Web &amp; REST API.</text>
  <text x="540" y="430"
        font-family="ui-monospace, SFMono-Regular, Menlo, Monaco, Consolas, monospace"
        font-size="22" fill="#5EEAD4" letter-spacing="3">PHP 8.4 · MYSQL · JWT</text>
</svg>
